<svg width="228" height="35" viewBox="0 0 228 35" fill="none" xmlns="http://www.w3.org/2000/svg">
<g clip-path="url(#clip0_23:7617)">
<path d="M215.633 22.8054C211.893 21.1387 210.932 20.135 211.477 18.5153C212.483 15.5481 214.909 17.614 216.823 17.1923C216.318 15.4415 214.685 14.842 213.547 13.796C212.626 12.9563 211.553 12.2793 210.714 11.3584C210.486 11.1374 210.305 10.8724 210.182 10.5794C210.059 10.2864 209.997 9.97152 210 9.65383C210.002 9.33614 210.069 9.02227 210.196 8.73121C210.324 8.44016 210.509 8.17799 210.74 7.96058C210.93 7.74769 211.159 7.57437 211.415 7.45063C211.672 7.32688 211.95 7.25517 212.235 7.23962C212.519 7.22407 212.804 7.265 213.072 7.36004C213.34 7.45508 213.587 7.60236 213.799 7.79336C214.708 8.45549 215.686 9.04992 216.512 9.79329C219.684 12.5474 222.924 15.3838 225.93 18.3823C228.449 20.8856 228.01 22.8746 224.844 24.5831C222.981 25.592 220.982 26.3816 219.145 27.4454C215.489 29.5731 211.833 31.7645 208.176 34.0196C206.805 34.8823 205.437 35.3629 204.083 33.9876C202.729 32.6124 203.055 31.0729 204.757 29.7488C207.023 27.9787 209.504 26.5105 211.918 24.9463C213.07 24.2457 214.153 23.6673 215.633 22.8054Z" fill="#65B07A"/>
<path d="M85.2843 8.15659C83.7442 7.89895 82.4793 7.35687 82.3834 5.65028C82.2875 3.94369 83.5759 3.23045 85.0239 3.05068C89.9959 2.46167 94.9672 1.95454 99.9521 1.46117C100.569 1.3613 101.201 1.45192 101.765 1.72093C102.43 2.17646 103.23 2.90597 103.306 3.5889C103.222 4.42804 102.832 5.20694 102.211 5.7775C101.739 6.19439 101.142 6.44394 100.513 6.48754C95.4868 7.07612 90.3788 7.60948 85.2843 8.15659Z" fill="#65B07A"/>
<path d="M143.516 2.8105C145.752 3.03263 147.988 3.24111 150.224 3.51782C151.588 3.69221 152.578 4.40956 152.539 5.95134C152.5 7.49311 151.444 8.12628 150.091 8.32044C149.225 8.41623 148.35 8.40941 147.485 8.30013C143.885 7.93091 140.286 7.52075 136.686 7.12424C136.311 7.09767 135.938 7.0492 135.568 6.97906C134.206 6.61363 133.243 5.82826 133.419 4.35578C133.441 4.03812 133.528 3.72835 133.674 3.44512C133.82 3.16188 134.021 2.91104 134.266 2.70769C134.511 2.50433 134.795 2.35267 135.1 2.26183C135.405 2.17099 135.726 2.14285 136.042 2.1791C138.538 2.33502 141.019 2.66823 143.501 2.93321L143.516 2.8105Z" fill="#65B07A"/>
<path d="M163.749 5.19258C165.74 5.39915 167.745 5.55124 169.721 5.82594C171.193 6.04211 172.443 6.77513 172.335 8.45283C172.324 8.80361 172.237 9.14789 172.08 9.46173C171.923 9.77557 171.7 10.0514 171.425 10.2701C171.151 10.4888 170.832 10.645 170.491 10.7279C170.15 10.8109 169.795 10.8185 169.451 10.7503C165.096 10.3525 160.751 9.86371 156.416 9.28405C156.098 9.2759 155.786 9.19656 155.502 9.05186C155.219 8.90717 154.972 8.7008 154.779 8.44793C154.586 8.19507 154.452 7.90214 154.387 7.59068C154.322 7.27923 154.327 6.95717 154.403 6.64819C154.591 6.15425 154.895 5.71296 155.289 5.36196C155.684 5.01097 156.158 4.7607 156.671 4.6325C159.04 4.70003 161.404 4.90984 163.748 5.26082L163.749 5.19258Z" fill="#65B07A"/>
<path d="M41.5746 15.0488C41.1699 15.0221 40.7806 14.8839 40.4496 14.6495C40.1186 14.4152 39.859 14.0938 39.6994 13.721C39.5398 13.3481 39.4866 12.9384 39.5455 12.5372C39.6044 12.1359 39.7732 11.7588 40.0333 11.4476C40.304 11.0304 40.6908 10.7014 41.146 10.501C44.9351 9.35695 48.7243 8.19921 52.5665 7.24659C52.8695 7.14771 53.1916 7.12196 53.5064 7.17142C53.8213 7.22089 54.12 7.34418 54.3781 7.5312C54.6362 7.71822 54.8463 7.96366 54.9914 8.24747C55.1364 8.53127 55.2122 8.84538 55.2126 9.1641C55.1923 9.68632 55.0503 10.1966 54.7979 10.6542C54.5456 11.1119 54.1899 11.5043 53.7592 11.8003C49.9965 13.0537 46.1407 14.0062 42.3116 15.0408C42.0674 15.0768 41.8195 15.0795 41.5746 15.0488Z" fill="#65B07A"/>
<path d="M123.465 1.5352L124.624 1.66705C126.192 1.80209 127.732 2.05973 127.675 4.11995C127.618 6.18016 126.032 6.56356 124.517 6.60634C121.173 6.7031 117.817 6.55413 114.46 6.52797C112.918 6.51595 111.735 5.94722 111.585 4.25385C111.445 2.88809 112.642 1.6692 114.553 1.54763C117.543 1.43446 120.531 1.53963 123.465 1.5352Z" fill="#65B07A"/>
<path d="M198.547 12.3963C201.269 13.2909 204.305 14.2698 207.367 15.3308C207.676 15.3913 207.97 15.5138 208.231 15.691C208.491 15.8681 208.713 16.0962 208.883 16.3615C209.053 16.6268 209.168 16.9238 209.22 17.2346C209.272 17.5454 209.261 17.8636 209.187 18.1699C209.123 18.4804 208.996 18.7742 208.812 19.0326C208.629 19.291 208.393 19.5083 208.121 19.6705C207.849 19.8328 207.546 19.9365 207.231 19.975C206.917 20.0135 206.597 19.9859 206.294 19.8941C204.482 19.5525 202.698 18.9927 200.846 18.487C199.294 18.0382 197.742 17.5758 196.217 17.0862C194.693 16.5967 193.663 15.7017 194.085 14.081C194.507 12.4603 195.806 12.1156 197.319 12.3185L198.547 12.3963Z" fill="#65B07A"/>
<path d="M72.1046 4.26009C72.7944 5.04333 73.9892 5.83051 74.1185 6.75949C74.0399 7.27338 73.8298 7.75824 73.5086 8.167C73.1874 8.57577 72.766 8.89456 72.2853 9.09245C69.1306 9.69561 65.9341 10.0539 62.7242 10.1643C62.0146 10.1587 60.8915 8.92178 60.6391 8.04642C60.5721 7.76876 60.5678 7.47967 60.6265 7.20014C60.6852 6.92061 60.8053 6.65765 60.9782 6.43033C61.1512 6.20302 61.3726 6.01706 61.6263 5.88595C61.8801 5.75484 62.1598 5.68186 62.4453 5.67231C65.4925 5.16384 68.5661 4.76474 72.1046 4.26009Z" fill="#65B07A"/>
<path d="M32.4744 13.0127C33.1921 13.7279 34.0753 14.2261 34.261 14.9098C34.3317 15.3187 34.3207 15.7374 34.2285 16.142C34.1364 16.5465 33.9649 16.9287 33.7241 17.2665C33.1311 17.8897 32.3906 18.3532 31.571 18.6144C29.3271 19.7008 27.0129 20.6357 24.644 21.4126C24.1393 21.4609 23.6303 21.3902 23.1578 21.2065C22.6853 21.0227 22.2623 20.7308 21.9229 20.3543C21.7486 19.9246 21.6903 19.4566 21.7538 18.9973C21.8172 18.5379 22.0002 18.1033 22.2844 17.7369C25.1963 15.3305 28.847 14.431 32.4744 13.0127Z" fill="#65B07A"/>
<path d="M2.49471 31.9937C2.083 31.9653 1.68778 31.8207 1.35485 31.5769C1.02192 31.333 0.764925 30.9997 0.613656 30.6158C0.462388 30.2318 0.423042 29.8128 0.500174 29.4074C0.577306 29.002 0.767772 28.6267 1.04947 28.3251C3.37541 26.3116 5.89939 24.5389 8.58276 23.0343C9.10364 22.7381 10.559 23.3635 11.0864 23.9818C11.2883 24.3406 11.3928 24.746 11.3896 25.1577C11.3864 25.5695 11.2755 25.9732 11.0681 26.3289C8.56868 28.3427 5.90714 30.1507 3.2862 31.9999C3.06659 32.1619 2.74024 32.0092 2.49471 31.9937Z" fill="#65B07A"/>
<path d="M180.784 13.4452C179.313 13.0379 177.72 12.6571 176.181 12.1538C175.863 12.1059 175.557 11.9935 175.283 11.8237C175.009 11.6538 174.773 11.4299 174.588 11.1657C174.404 10.9015 174.275 10.6025 174.209 10.2868C174.144 9.97121 174.144 9.64559 174.208 9.32981C174.273 9.01403 174.401 8.71471 174.585 8.45009C174.769 8.18546 175.005 7.96108 175.279 7.7906C175.552 7.62011 175.858 7.50711 176.176 7.45847C176.495 7.40982 176.82 7.42656 177.132 7.50766C178.869 7.73525 180.583 8.1139 182.254 8.63932C183.725 9.07383 185.166 9.78104 184.864 11.7302C184.634 13.2159 183.115 13.8181 180.784 13.4452Z" fill="#65B07A"/>
</g>
<defs>
<clipPath id="clip0_23:7617">
<rect width="227.061" height="32.6284" fill="white" transform="translate(0.665222 0.578247) rotate(0.446484)"/>
</clipPath>
</defs>
</svg>
