<svg width="70" height="90" viewBox="0 0 70 90" fill="none" xmlns="http://www.w3.org/2000/svg">
<circle cx="32.5" cy="46.5" r="32.5" fill="#A4E2B5"/>
<g clip-path="url(#clip0_102:12)">
<path d="M50.59 65.12L65.59 41.01C65.6393 40.9333 65.6827 40.8531 65.72 40.77C68.2109 36.7099 69.5743 32.0591 69.6696 27.2968C69.765 22.5345 68.5889 17.8329 66.2626 13.6763C63.9362 9.51979 60.5437 6.05867 56.4345 3.64955C52.3254 1.24044 47.6483 -0.029541 42.885 -0.029541C38.1217 -0.029541 33.4446 1.24044 29.3355 3.64955C25.2263 6.05867 21.8338 9.51979 19.5075 13.6763C17.1811 17.8329 16.005 22.5345 16.1004 27.2968C16.1957 32.0591 17.5591 36.7099 20.05 40.77C20.0827 40.842 20.1194 40.9121 20.16 40.98L34.6 65.17C23.38 66.76 16 71.37 16 76.97C16 83.9 27.79 89.33 42.83 89.33C57.87 89.33 69.66 83.9 69.66 76.97C69.66 71.35 61.94 66.63 50.59 65.12ZM22.73 39.41C20.4668 35.8103 19.2097 31.6699 19.0895 27.4195C18.9693 23.1692 19.9905 18.9643 22.0468 15.2425C24.1031 11.5208 27.1193 8.41811 30.7814 6.25749C34.4436 4.09688 38.618 2.95727 42.87 2.95727C47.122 2.95727 51.2964 4.09688 54.9586 6.25749C58.6207 8.41811 61.6369 11.5208 63.6932 15.2425C65.7495 18.9643 66.7706 23.1692 66.6505 27.4195C66.5303 31.6699 65.2732 35.8103 63.01 39.41C62.9619 39.4892 62.9217 39.5729 62.89 39.66L47.05 65.12C46.81 65.49 46.76 65.57 46.47 66.05L42.47 72.48L22.87 39.68C22.8313 39.5861 22.7845 39.4957 22.73 39.41ZM42.83 86.33C28.83 86.33 19 81.4 19 76.97C19 72.97 26.37 69.16 36.29 67.97L41.16 76.12C41.2923 76.3394 41.4784 76.5216 41.7006 76.6493C41.9227 76.777 42.1738 76.8461 42.43 76.85C42.6894 76.8485 42.9442 76.7807 43.17 76.6529C43.3958 76.5251 43.5852 76.3417 43.72 76.12L48.84 67.89C58.91 68.98 66.66 72.89 66.66 76.89C66.66 81.4 56.87 86.33 42.83 86.33Z" fill="#181818"/>
<path d="M52.57 26.79C52.57 24.8636 51.9988 22.9805 50.9285 21.3787C49.8583 19.777 48.3371 18.5286 46.5573 17.7914C44.7776 17.0542 42.8192 16.8613 40.9298 17.2371C39.0404 17.613 37.3049 18.5406 35.9428 19.9028C34.5806 21.2649 33.653 23.0004 33.2772 24.8898C32.9013 26.7792 33.0942 28.7376 33.8314 30.5173C34.5686 32.2971 35.817 33.8183 37.4187 34.8885C39.0205 35.9587 40.9036 36.53 42.83 36.53C45.4124 36.5273 47.8883 35.5003 49.7143 33.6743C51.5403 31.8483 52.5674 29.3724 52.57 26.79ZM36.09 26.79C36.09 25.4569 36.4853 24.1538 37.2259 23.0454C37.9665 21.9371 39.0191 21.0732 40.2507 20.563C41.4823 20.0529 42.8375 19.9194 44.1449 20.1795C45.4523 20.4396 46.6533 21.0815 47.5959 22.0241C48.5385 22.9667 49.1804 24.1677 49.4405 25.4751C49.7006 26.7825 49.5671 28.1377 49.0569 29.3693C48.5468 30.6009 47.6829 31.6535 46.5745 32.3941C45.4662 33.1347 44.163 33.53 42.83 33.53C41.9449 33.53 41.0684 33.3557 40.2507 33.0169C39.433 32.6782 38.69 32.1818 38.0641 31.5559C37.4382 30.93 36.9418 30.187 36.6031 29.3693C36.2643 28.5515 36.09 27.6751 36.09 26.79Z" fill="#181818"/>
</g>
<defs>
<clipPath id="clip0_102:12">
<rect width="53.66" height="89.34" fill="white" transform="translate(16)"/>
</clipPath>
</defs>
</svg>
