<svg width="21" height="21" viewBox="0 0 21 21" fill="none" xmlns="http://www.w3.org/2000/svg">
<g clip-path="url(#clip0_18:15)">
<path d="M2.39258 0.183718L20.1313 9.07731C20.3993 9.21078 20.6242 9.41407 20.7813 9.6647C20.9384 9.91534 21.0216 10.2036 21.0216 10.4975C21.0216 10.7915 20.9384 11.0797 20.7813 11.3303C20.6242 11.5809 20.3993 11.7842 20.1313 11.9177L2.39258 20.8113C2.06146 20.9801 1.68112 21.0327 1.3151 20.9602C0.94909 20.8878 0.619586 20.6948 0.381689 20.4134C0.143792 20.132 0.0119104 19.7793 0.00808139 19.4143C0.00425242 19.0492 0.128708 18.694 0.360652 18.4079L5.90783 11.4807C6.13779 11.1985 6.263 10.8484 6.263 10.4876C6.263 10.1268 6.13779 9.77664 5.90783 9.49443L0.360652 2.57222C0.142687 2.28448 0.0298263 1.93356 0.0401403 1.57566C0.0504544 1.21777 0.183355 0.873601 0.417546 0.598313C0.651737 0.323024 0.973665 0.132543 1.33177 0.0573702C1.68987 -0.0178025 2.06342 0.0266877 2.39258 0.183718Z" fill="#EEFFF9"/>
</g>
<defs>
<clipPath id="clip0_18:15">
<rect width="21" height="21" fill="white"/>
</clipPath>
</defs>
</svg>
