<svg width="21" height="21" viewBox="0 0 21 21" fill="none" xmlns="http://www.w3.org/2000/svg">
<g clip-path="url(#clip0_18:12)">
<path d="M18.6074 0.183718L0.868658 9.07731C0.600746 9.21078 0.375807 9.41407 0.218704 9.6647C0.0616016 9.91534 -0.0215511 10.2036 -0.0215511 10.4975C-0.0215511 10.7915 0.0616016 11.0797 0.218704 11.3303C0.375807 11.5809 0.600746 11.7842 0.868658 11.9177L18.6074 20.8113C18.9385 20.9801 19.3189 21.0327 19.6849 20.9602C20.0509 20.8878 20.3804 20.6948 20.6183 20.4134C20.8562 20.132 20.9881 19.7793 20.9919 19.4143C20.9957 19.0492 20.8713 18.694 20.6393 18.4079L15.0922 11.4807C14.8622 11.1985 14.737 10.8484 14.737 10.4876C14.737 10.1268 14.8622 9.77664 15.0922 9.49443L20.6393 2.57222C20.8573 2.28448 20.9702 1.93356 20.9599 1.57566C20.9495 1.21777 20.8166 0.873601 20.5825 0.598313C20.3483 0.323024 20.0263 0.132543 19.6682 0.0573702C19.3101 -0.0178025 18.9366 0.0266877 18.6074 0.183718Z" fill="#EEFFF9"/>
</g>
<defs>
<clipPath id="clip0_18:12">
<rect width="21" height="21" fill="white" transform="matrix(-1 0 0 1 21 0)"/>
</clipPath>
</defs>
</svg>
