<svg width="18" height="14" viewBox="0 0 18 14" fill="none" xmlns="http://www.w3.org/2000/svg">
<g clip-path="url(#clip0_3:409)">
<path d="M16.15 0.200057C16.017 0.0681535 15.8373 -0.00585938 15.65 -0.00585938C15.4627 -0.00585938 15.283 0.0681535 15.15 0.200057L6.92 8.43006L2.68 4.16006C2.54702 4.02815 2.3673 3.95414 2.18 3.95414C1.99269 3.95414 1.81298 4.02815 1.68 4.16006L0.199996 5.63006C0.0680925 5.76304 -0.00592041 5.94275 -0.00592041 6.13006C-0.00592041 6.31736 0.0680925 6.49708 0.199996 6.63006L6.42 12.8901C6.55298 13.022 6.73269 13.096 6.92 13.096C7.1073 13.096 7.28702 13.022 7.42 12.8901L17.63 2.68006C17.6965 2.61488 17.7494 2.53709 17.7854 2.45123C17.8215 2.36538 17.8401 2.27319 17.8401 2.18006C17.8401 2.08693 17.8215 1.99474 17.7854 1.90888C17.7494 1.82303 17.6965 1.74523 17.63 1.68006L16.15 0.200057Z" fill="#181818"/>
</g>
<defs>
<clipPath id="clip0_3:409">
<rect width="17.84" height="13.1" fill="white"/>
</clipPath>
</defs>
</svg>
