<svg width="18" height="14" viewBox="0 0 18 14" fill="none" xmlns="http://www.w3.org/2000/svg">
<g clip-path="url(#clip0_13:35)">
<path d="M16.15 0.199996C16.017 0.0680925 15.8373 -0.00592041 15.65 -0.00592041C15.4627 -0.00592041 15.283 0.0680925 15.15 0.199996L6.92 8.43L2.68 4.16C2.54702 4.02809 2.3673 3.95408 2.18 3.95408C1.9927 3.95408 1.81298 4.02809 1.68 4.16L0.2 5.63C0.0680963 5.76298 -0.0059166 5.94269 -0.0059166 6.13C-0.0059166 6.3173 0.0680963 6.49702 0.2 6.63L6.42 12.89C6.55298 13.0219 6.7327 13.0959 6.92 13.0959C7.1073 13.0959 7.28702 13.0219 7.42 12.89L17.63 2.68C17.6965 2.61482 17.7494 2.53703 17.7854 2.45117C17.8215 2.36532 17.8401 2.27312 17.8401 2.18C17.8401 2.08687 17.8215 1.99468 17.7854 1.90882C17.7494 1.82297 17.6965 1.74517 17.63 1.68L16.15 0.199996Z" fill="#FFFCF9"/>
</g>
<defs>
<clipPath id="clip0_13:35">
<rect width="17.84" height="13.1" fill="white"/>
</clipPath>
</defs>
</svg>
